<svg xmlns="http://www.w3.org/2000/svg" xmlns:xlink="http://www.w3.org/1999/xlink" width="500" zoomAndPan="magnify" viewBox="0 0 375 374.999991" height="500" preserveAspectRatio="xMidYMid meet" version="1.0"><defs><g/><clipPath id="941aa13f43"><path d="M 216 183 L 318.75 183 L 318.75 280 L 216 280 Z M 216 183 " clip-rule="nonzero"/></clipPath></defs><path fill="#ffad95" d="M 251.328125 264.019531 C 255.75 278.214844 262.34375 291.726562 270.816406 303.945312 C 273.640625 308.015625 276.722656 311.992188 280.679688 314.96875 C 284.632812 317.945312 289.59375 319.855469 294.519531 319.308594 C 300.652344 318.628906 305.921875 314.171875 308.820312 308.71875 C 311.714844 303.265625 312.523438 296.9375 312.511719 290.765625 C 312.492188 274.59375 307.242188 258.941406 302.265625 243.449219 C 292.128906 243.121094 281.796875 242.816406 272.054688 245.628906 C 262.316406 248.445312 248.585938 255.199219 251.332031 264.019531 Z M 251.328125 264.019531 " fill-opacity="1" fill-rule="nonzero"/><path fill="#a359a0" d="M 293.453125 220.804688 C 284.167969 226.945312 273.683594 231.269531 262.769531 233.460938 C 256.867188 271.601562 253.535156 321.589844 254.082031 361.121094 C 207.535156 374.921875 158.769531 374.339844 113.785156 360.871094 C 110.398438 333.878906 107.320312 298.6875 105.34375 273.8125 C 88.597656 273.589844 71.726562 268.414062 57.011719 259.605469 C 60.03125 237.464844 65.117188 215.570312 71.773438 194.160156 C 75.0625 183.570312 78.914062 172.796875 86.316406 164.539062 C 94.03125 155.929688 104.859375 150.882812 115.367188 146.0625 C 126.347656 141.027344 137.335938 135.992188 148.566406 131.539062 C 151.945312 122.011719 159.851562 114.675781 169.0625 112.789062 C 177.277344 120.351562 189.597656 123.140625 200.972656 120.535156 C 206.996094 119.683594 213.386719 122.972656 214.941406 130.203125 C 230.75 136.257812 246.960938 142.550781 259.480469 153.945312 C 278.21875 171 285.890625 196.726562 293.453125 220.804688 Z M 293.453125 220.804688 " fill-opacity="1" fill-rule="nonzero"/><path fill="#49326b" d="M 261.265625 210.503906 C 261.234375 210.503906 261.203125 210.503906 261.167969 210.5 C 260.699219 210.449219 260.363281 210.023438 260.414062 209.554688 L 264.203125 175.816406 C 264.253906 175.347656 264.679688 175.011719 265.148438 175.066406 C 265.617188 175.117188 265.953125 175.539062 265.902344 176.007812 L 262.113281 209.746094 C 262.0625 210.183594 261.695312 210.507812 261.265625 210.507812 Z M 261.265625 210.503906 " fill-opacity="1" fill-rule="nonzero"/><path fill="#49326b" d="M 225.636719 69.605469 C 229.839844 62.578125 234.050781 55.4375 236.3125 47.566406 C 238.578125 39.699219 238.71875 30.902344 234.953125 23.628906 C 232.625 19.132812 228.949219 15.464844 224.980469 12.320312 C 216.292969 5.433594 205.640625 0.660156 194.558594 0.367188 C 183.476562 0.078125 172.035156 4.6875 165.597656 12.988281 C 152.277344 15.421875 141.214844 27.164062 139.566406 40.597656 C 137.921875 54.035156 145.828125 68.101562 158.164062 73.675781 C 163.925781 76.28125 170.519531 77.21875 175.578125 81.011719 C 178.863281 83.480469 181.21875 86.957031 184.058594 89.925781 C 186.894531 92.898438 190.609375 95.503906 194.714844 95.34375 C 198.496094 95.199219 201.824219 92.722656 204.242188 89.8125 C 206.664062 86.902344 208.425781 83.5 210.765625 80.527344 C 214.40625 75.894531 219.441406 72.375 225.636719 69.605469 Z M 225.636719 69.605469 " fill-opacity="1" fill-rule="nonzero"/><path fill="#ffad95" d="M 164.179688 85.996094 C 163.246094 96.976562 162.308594 107.957031 161.203125 118.96875 C 165.753906 133.859375 176.765625 146.652344 191.476562 153.253906 C 197.460938 143.679688 202.039062 133.230469 205.566406 122.074219 C 205.613281 115.859375 205.433594 109.644531 204.6875 105.007812 C 201.546875 97.863281 196.101562 91.746094 189.367188 87.796875 C 182.628906 83.847656 174.632812 82.085938 164.179688 85.996094 Z M 164.179688 85.996094 " fill-opacity="1" fill-rule="nonzero"/><path fill="#ffad95" d="M 162.128906 86.429688 C 165.527344 93.671875 170.007812 100.503906 175.984375 105.820312 C 181.957031 111.140625 189.519531 114.871094 197.496094 115.445312 C 205.472656 116.023438 213.816406 113.210938 219.195312 107.289062 C 226.492188 99.253906 227.285156 87.429688 227.695312 76.585938 C 228.027344 67.8125 228.363281 59.039062 228.695312 50.265625 C 228.820312 46.953125 228.734375 43.140625 226.183594 41.023438 C 224.28125 39.445312 221.609375 39.351562 219.15625 39.058594 C 213.597656 38.398438 208.308594 36.378906 202.976562 34.671875 C 197.640625 32.96875 192.058594 31.558594 186.496094 32.167969 C 180.929688 32.78125 175.339844 35.773438 172.984375 40.851562 C 171.15625 44.792969 171.394531 49.574219 168.984375 53.1875 C 167.65625 55.179688 165.632812 56.625 164.289062 58.609375 C 162.945312 60.589844 162.503906 63.597656 164.277344 65.707031 C 162.601562 63.410156 159.539062 62.300781 156.734375 62.75 C 153.925781 63.195312 151.445312 65.085938 150.03125 67.550781 C 148.617188 70.015625 148.226562 72.996094 148.691406 75.800781 C 149.171875 78.695312 150.582031 81.484375 152.855469 83.34375 C 155.128906 85.199219 158.292969 86.03125 162.132812 86.429688 Z M 162.128906 86.429688 " fill-opacity="1" fill-rule="nonzero"/><path fill="#49326b" d="M 162.71875 81.59375 C 160.460938 81.59375 158.34375 79.945312 157.828125 77.726562 C 157.359375 75.714844 158.285156 73.53125 159.984375 72.40625 C 159.449219 71.464844 158.59375 70.703125 157.589844 70.304688 C 156.359375 69.8125 154.910156 69.859375 153.71875 70.4375 C 153.292969 70.644531 152.785156 70.46875 152.578125 70.042969 C 152.371094 69.617188 152.546875 69.105469 152.972656 68.898438 C 154.59375 68.117188 156.554688 68.046875 158.226562 68.714844 C 159.894531 69.382812 161.269531 70.789062 161.902344 72.472656 C 162.0625 72.902344 161.855469 73.382812 161.429688 73.5625 C 160.015625 74.152344 159.148438 75.847656 159.496094 77.339844 C 159.839844 78.832031 161.371094 79.972656 162.898438 79.878906 C 163.371094 79.851562 163.777344 80.207031 163.804688 80.679688 C 163.832031 81.148438 163.472656 81.554688 163.003906 81.582031 C 162.910156 81.589844 162.816406 81.589844 162.722656 81.589844 Z M 162.71875 81.59375 " fill-opacity="1" fill-rule="nonzero"/><path fill="#49326b" d="M 200.789062 85.625 C 200.070312 85.625 199.351562 85.503906 198.671875 85.246094 C 198.230469 85.082031 198.007812 84.589844 198.171875 84.148438 C 198.339844 83.707031 198.832031 83.480469 199.273438 83.648438 C 200.824219 84.230469 202.679688 83.859375 203.894531 82.726562 C 205.105469 81.597656 205.597656 79.769531 205.121094 78.179688 C 204.769531 77.007812 203.960938 76.015625 203.101562 74.960938 C 202.355469 74.042969 201.582031 73.09375 201.070312 71.964844 C 200.074219 69.785156 200.28125 67.453125 200.628906 65.878906 C 201.058594 63.9375 201.882812 62.152344 202.683594 60.421875 C 202.878906 59.996094 203.386719 59.808594 203.816406 60.003906 C 204.246094 60.203125 204.433594 60.710938 204.234375 61.140625 C 203.472656 62.785156 202.6875 64.488281 202.296875 66.25 C 202.003906 67.566406 201.824219 69.503906 202.625 71.257812 C 203.046875 72.1875 203.71875 73.011719 204.429688 73.882812 C 205.351562 75.019531 206.308594 76.191406 206.757812 77.6875 C 207.417969 79.882812 206.734375 82.410156 205.0625 83.972656 C 203.914062 85.046875 202.351562 85.625 200.792969 85.625 Z M 200.789062 85.625 " fill-opacity="1" fill-rule="nonzero"/><path fill="#49326b" d="M 198.289062 101.097656 C 196.65625 101.097656 195.027344 100.773438 193.515625 100.117188 C 192.171875 99.539062 190.332031 98.4375 189.203125 96.484375 C 188.230469 94.808594 188 92.769531 188.3125 88.6875 C 188.332031 88.441406 188.457031 88.210938 188.660156 88.0625 C 188.863281 87.917969 189.117188 87.863281 189.359375 87.921875 C 194.714844 89.179688 200.210938 89.570312 205.691406 89.082031 C 206.601562 89 208.292969 88.851562 209.265625 90.027344 C 209.988281 90.902344 210.039062 92.152344 209.425781 93.648438 C 208.203125 96.613281 205.796875 99.007812 202.824219 100.214844 C 201.382812 100.804688 199.835938 101.097656 198.289062 101.097656 Z M 189.949219 89.804688 C 189.773438 92.808594 189.988281 94.433594 190.679688 95.628906 C 191.578125 97.179688 193.085938 98.074219 194.191406 98.550781 C 196.679688 99.625 199.667969 99.65625 202.179688 98.636719 C 204.691406 97.613281 206.808594 95.507812 207.84375 93 C 208.007812 92.597656 208.351562 91.609375 207.945312 91.117188 C 207.578125 90.667969 206.664062 90.710938 205.839844 90.785156 C 200.511719 91.257812 195.171875 90.929688 189.949219 89.804688 Z M 189.949219 89.804688 " fill-opacity="1" fill-rule="nonzero"/><path fill="#49326b" d="M 117.792969 236.363281 C 117.398438 236.363281 117.042969 236.085938 116.957031 235.683594 C 115.398438 228.230469 114.585938 220.546875 113.796875 213.121094 C 113.242188 207.855469 112.664062 202.410156 111.828125 197.105469 C 110.695312 189.921875 109.167969 183.785156 107.160156 178.339844 C 104.753906 171.808594 101.71875 166.398438 97.878906 161.804688 C 97.574219 161.445312 97.625 160.90625 97.984375 160.601562 C 98.347656 160.300781 98.886719 160.347656 99.191406 160.710938 C 103.101562 165.390625 106.320312 171.121094 108.765625 177.746094 C 110.8125 183.296875 112.363281 189.542969 113.515625 196.839844 C 114.359375 202.183594 114.9375 207.652344 115.496094 212.9375 C 116.28125 220.324219 117.089844 227.964844 118.628906 235.332031 C 118.726562 235.792969 118.429688 236.246094 117.96875 236.34375 C 117.910156 236.355469 117.851562 236.363281 117.792969 236.363281 Z M 117.792969 236.363281 " fill-opacity="1" fill-rule="nonzero"/><path fill="#49326b" d="M 116.164062 259.875 C 116.085938 259.875 116.003906 259.863281 115.925781 259.839844 L 59.882812 243.695312 C 59.429688 243.566406 59.171875 243.089844 59.300781 242.636719 C 59.429688 242.183594 59.90625 241.921875 60.359375 242.054688 L 116.402344 258.199219 C 116.855469 258.328125 117.117188 258.800781 116.984375 259.253906 C 116.878906 259.628906 116.535156 259.875 116.164062 259.875 Z M 116.164062 259.875 " fill-opacity="1" fill-rule="nonzero"/><g clip-path="url(#941aa13f43)"><path fill="#f4f0e4" d="M 282.863281 278.578125 L 216.65625 279.523438 L 254.347656 183.972656 L 318.757812 193.28125 Z M 282.863281 278.578125 " fill-opacity="1" fill-rule="nonzero"/></g><path fill="#ffad95" d="M 289.492188 267.542969 C 295.417969 268.847656 301.71875 266.179688 305.980469 261.859375 C 310.246094 257.539062 312.742188 251.78125 314.480469 245.964844 C 315.265625 243.328125 315.910156 240.460938 314.984375 237.867188 C 314.265625 235.863281 312.691406 234.289062 311.066406 232.914062 C 304.195312 227.125 295.429688 223.625 286.460938 223.089844 C 285.234375 223.019531 283.964844 223.007812 282.835938 223.492188 C 281.707031 223.976562 280.761719 225.078125 280.945312 226.570312 C 278.203125 226.476562 275.527344 228.441406 274.789062 231.085938 C 274.472656 232.21875 274.484375 233.421875 274.277344 234.578125 C 273.988281 236.15625 273.292969 237.636719 273 239.214844 C 272.585938 241.410156 272.972656 243.671875 273.359375 245.871094 C 273.695312 247.773438 274.03125 249.679688 274.585938 251.527344 C 276.804688 258.875 282.433594 265.992188 289.492188 267.542969 Z M 289.492188 267.542969 " fill-opacity="1" fill-rule="nonzero"/><path fill="#49326b" d="M 288.6875 260.386719 C 288.558594 260.386719 288.425781 260.359375 288.304688 260.296875 L 273.746094 252.988281 C 273.328125 252.777344 273.15625 252.261719 273.367188 251.84375 C 273.578125 251.421875 274.09375 251.25 274.511719 251.460938 L 289.070312 258.769531 C 289.492188 258.980469 289.664062 259.496094 289.449219 259.914062 C 289.300781 260.214844 289 260.386719 288.6875 260.386719 Z M 288.6875 260.386719 " fill-opacity="1" fill-rule="nonzero"/><path fill="#49326b" d="M 292.378906 253.707031 C 292.230469 253.707031 292.078125 253.667969 291.941406 253.585938 L 271.976562 241.613281 C 271.574219 241.371094 271.441406 240.847656 271.683594 240.441406 C 271.925781 240.039062 272.449219 239.90625 272.855469 240.148438 L 292.820312 252.121094 C 293.226562 252.363281 293.355469 252.886719 293.113281 253.292969 C 292.957031 253.558594 292.671875 253.707031 292.382812 253.707031 Z M 292.378906 253.707031 " fill-opacity="1" fill-rule="nonzero"/><path fill="#49326b" d="M 296.109375 245.9375 C 295.980469 245.9375 295.84375 245.90625 295.722656 245.84375 C 288.539062 242.167969 281.355469 238.261719 274.363281 234.234375 C 273.957031 234 273.8125 233.476562 274.050781 233.070312 C 274.285156 232.660156 274.808594 232.519531 275.21875 232.753906 C 282.183594 236.769531 289.34375 240.660156 296.5 244.320312 C 296.917969 244.535156 297.085938 245.050781 296.871094 245.46875 C 296.71875 245.765625 296.421875 245.9375 296.109375 245.9375 Z M 296.109375 245.9375 " fill-opacity="1" fill-rule="nonzero"/><path fill="#49326b" d="M 301.527344 236.878906 C 301.40625 236.878906 301.285156 236.851562 301.171875 236.796875 L 279.984375 227.011719 C 279.554688 226.816406 279.367188 226.308594 279.566406 225.878906 C 279.761719 225.449219 280.269531 225.265625 280.699219 225.460938 L 301.886719 235.246094 C 302.316406 235.445312 302.5 235.953125 302.304688 236.382812 C 302.160156 236.691406 301.851562 236.878906 301.527344 236.878906 Z M 301.527344 236.878906 " fill-opacity="1" fill-rule="nonzero"/><path fill="#49326b" d="M 198.371094 244.964844 C 197.953125 244.964844 197.589844 244.65625 197.527344 244.230469 C 193.628906 216.734375 191.511719 188.714844 191.242188 160.941406 C 191.238281 160.46875 191.617188 160.085938 192.089844 160.082031 C 192.09375 160.082031 192.097656 160.082031 192.097656 160.082031 C 192.566406 160.082031 192.945312 160.457031 192.953125 160.925781 C 193.21875 188.621094 195.328125 216.570312 199.21875 243.992188 C 199.285156 244.460938 198.960938 244.890625 198.492188 244.957031 C 198.453125 244.964844 198.414062 244.96875 198.371094 244.96875 Z M 198.371094 244.964844 " fill-opacity="1" fill-rule="nonzero"/><path fill="#49326b" d="M 227.800781 243.25 C 226.785156 244.332031 225.082031 244.394531 223.984375 243.390625 L 171.679688 195.515625 C 170.140625 194.109375 170.054688 191.71875 171.480469 190.199219 C 172.910156 188.683594 175.300781 188.628906 176.796875 190.078125 L 227.714844 239.433594 C 228.78125 240.46875 228.820312 242.167969 227.800781 243.25 Z M 227.800781 243.25 " fill-opacity="1" fill-rule="nonzero"/><path fill="#ffad95" d="M 168.289062 258.144531 C 147.066406 277.550781 124.664062 296.785156 97.675781 306.726562 C 89.730469 309.65625 80.78125 311.703125 72.925781 308.539062 C 64.257812 305.050781 58.988281 295.820312 57.621094 286.578125 C 56.253906 277.335938 58.121094 267.957031 59.980469 258.804688 C 67.511719 260.523438 74.859375 262.492188 83.164062 263.515625 C 108.867188 256.949219 134.011719 248.195312 157.964844 237.804688 C 163.148438 234.171875 166.621094 228.628906 169.785156 223.148438 C 172.945312 217.664062 176.027344 211.972656 180.734375 207.742188 C 185.441406 203.511719 192.234375 200.972656 198.207031 203.058594 C 202.386719 204.519531 205.523438 207.949219 208.476562 211.25 C 212.59375 215.859375 216.710938 220.46875 220.832031 225.078125 C 221.285156 225.585938 221.753906 226.121094 221.945312 226.777344 C 222.429688 228.4375 220.835938 230.113281 219.132812 230.390625 C 217.429688 230.667969 215.730469 229.980469 213.160156 229.34375 C 212.9375 233.304688 209.996094 236.96875 206.175781 238.035156 C 205.753906 240.839844 203.863281 243.378906 201.300781 244.589844 C 198.738281 245.804688 195.578125 245.652344 192.800781 244.601562 C 187.992188 252.539062 178.808594 257.628906 168.289062 258.144531 Z M 168.289062 258.144531 " fill-opacity="1" fill-rule="nonzero"/><path fill="#49326b" d="M 212.59375 231.539062 C 212.535156 231.539062 212.476562 231.53125 212.414062 231.519531 C 211.953125 231.421875 211.660156 230.964844 211.757812 230.503906 C 212.519531 226.941406 212.121094 223.140625 210.640625 219.8125 C 209.15625 216.480469 206.597656 213.644531 203.441406 211.828125 C 203.03125 211.589844 202.890625 211.070312 203.128906 210.660156 C 203.363281 210.253906 203.886719 210.109375 204.292969 210.347656 C 207.765625 212.347656 210.570312 215.460938 212.199219 219.117188 C 213.828125 222.777344 214.265625 226.945312 213.429688 230.863281 C 213.34375 231.261719 212.992188 231.539062 212.597656 231.539062 Z M 212.59375 231.539062 " fill-opacity="1" fill-rule="nonzero"/><path fill="#49326b" d="M 206.027344 239.570312 C 205.921875 239.570312 205.816406 239.550781 205.714844 239.511719 C 205.277344 239.335938 205.0625 238.839844 205.238281 238.398438 C 206.8125 234.441406 206.148438 229.707031 203.542969 226.335938 C 200.9375 222.964844 196.523438 221.128906 192.296875 221.65625 C 191.828125 221.714844 191.402344 221.382812 191.34375 220.914062 C 191.285156 220.445312 191.617188 220.019531 192.085938 219.960938 C 196.898438 219.359375 201.929688 221.449219 204.894531 225.289062 C 207.863281 229.128906 208.621094 234.523438 206.824219 239.03125 C 206.691406 239.367188 206.367188 239.570312 206.03125 239.570312 Z M 206.027344 239.570312 " fill-opacity="1" fill-rule="nonzero"/><path fill="#49326b" d="M 200.054688 245.847656 C 199.890625 245.847656 199.726562 245.800781 199.578125 245.699219 C 199.1875 245.4375 199.082031 244.90625 199.347656 244.515625 C 201.355469 241.53125 200.996094 237.097656 198.53125 234.417969 C 196.988281 232.742188 194.140625 231.570312 191.902344 232.699219 C 191.484375 232.910156 190.96875 232.738281 190.753906 232.320312 C 190.542969 231.898438 190.714844 231.382812 191.132812 231.171875 C 194.152344 229.652344 197.773438 231.074219 199.789062 233.261719 C 202.816406 236.550781 203.234375 241.796875 200.761719 245.46875 C 200.597656 245.714844 200.328125 245.847656 200.054688 245.847656 Z M 200.054688 245.847656 " fill-opacity="1" fill-rule="nonzero"/><path fill="#49326b" d="M 198.980469 116.496094 C 191.359375 116.496094 177.46875 112.15625 165.820312 94.976562 C 165.558594 94.585938 165.65625 94.054688 166.050781 93.789062 C 166.4375 93.523438 166.96875 93.625 167.234375 94.015625 C 172.933594 102.421875 179.632812 108.433594 187.140625 111.882812 C 193.132812 114.636719 198.394531 115.101562 201.316406 114.613281 C 201.78125 114.535156 202.222656 114.847656 202.300781 115.3125 C 202.378906 115.78125 202.0625 116.21875 201.597656 116.296875 C 200.84375 116.421875 199.964844 116.496094 198.984375 116.496094 Z M 198.980469 116.496094 " fill-opacity="1" fill-rule="nonzero"/><path fill="#49326b" d="M 207.449219 55.582031 C 207.316406 57.855469 211.167969 57.921875 215.90625 58.199219 C 220.644531 58.472656 224.480469 58.859375 224.613281 56.585938 C 224.742188 54.316406 221.046875 51.582031 216.308594 51.304688 C 211.570312 51.027344 207.582031 53.3125 207.449219 55.585938 Z M 207.449219 55.582031 " fill-opacity="1" fill-rule="nonzero"/><path fill="#49326b" d="M 215.292969 63.246094 C 215.550781 63.253906 215.808594 63.296875 216.058594 63.367188 C 216.308594 63.4375 216.550781 63.539062 216.785156 63.671875 C 217.019531 63.800781 217.242188 63.960938 217.449219 64.144531 C 217.65625 64.328125 217.847656 64.535156 218.023438 64.769531 C 218.195312 65 218.351562 65.25 218.484375 65.519531 C 218.617188 65.789062 218.726562 66.070312 218.8125 66.367188 C 218.902344 66.664062 218.964844 66.96875 219.003906 67.285156 C 219.042969 67.597656 219.054688 67.910156 219.042969 68.230469 C 219.03125 68.546875 218.992188 68.859375 218.929688 69.167969 C 218.867188 69.476562 218.78125 69.777344 218.671875 70.066406 C 218.558594 70.355469 218.429688 70.628906 218.273438 70.886719 C 218.121094 71.144531 217.949219 71.382812 217.757812 71.601562 C 217.5625 71.816406 217.359375 72.011719 217.136719 72.179688 C 216.914062 72.347656 216.683594 72.488281 216.4375 72.597656 C 216.195312 72.710938 215.945312 72.792969 215.6875 72.84375 C 215.433594 72.898438 215.175781 72.917969 214.917969 72.90625 C 214.660156 72.898438 214.40625 72.855469 214.152344 72.785156 C 213.902344 72.714844 213.660156 72.613281 213.425781 72.480469 C 213.191406 72.351562 212.96875 72.191406 212.761719 72.007812 C 212.554688 71.824219 212.363281 71.617188 212.1875 71.382812 C 212.015625 71.152344 211.863281 70.902344 211.726562 70.632812 C 211.59375 70.363281 211.484375 70.082031 211.398438 69.785156 C 211.308594 69.488281 211.246094 69.179688 211.207031 68.867188 C 211.171875 68.554688 211.15625 68.238281 211.167969 67.921875 C 211.183594 67.605469 211.21875 67.292969 211.28125 66.984375 C 211.34375 66.675781 211.429688 66.375 211.542969 66.085938 C 211.652344 65.796875 211.785156 65.523438 211.9375 65.265625 C 212.089844 65.007812 212.265625 64.769531 212.457031 64.550781 C 212.648438 64.335938 212.855469 64.140625 213.074219 63.972656 C 213.296875 63.804688 213.53125 63.664062 213.773438 63.554688 C 214.015625 63.441406 214.265625 63.359375 214.523438 63.308594 C 214.777344 63.253906 215.035156 63.234375 215.292969 63.246094 Z M 215.292969 63.246094 " fill-opacity="1" fill-rule="nonzero"/><path fill="#49326b" d="M 193.476562 55.261719 C 193.542969 57.535156 189.691406 57.488281 184.945312 57.628906 C 180.199219 57.765625 176.355469 58.039062 176.292969 55.765625 C 176.226562 53.488281 179.996094 50.863281 184.742188 50.726562 C 189.488281 50.585938 193.410156 52.988281 193.476562 55.261719 Z M 193.476562 55.261719 " fill-opacity="1" fill-rule="nonzero"/><path fill="#49326b" d="M 186.265625 62.308594 C 186.523438 62.316406 186.777344 62.355469 187.03125 62.421875 C 187.28125 62.492188 187.527344 62.589844 187.761719 62.714844 C 187.996094 62.84375 188.21875 63 188.429688 63.179688 C 188.640625 63.363281 188.835938 63.566406 189.011719 63.796875 C 189.1875 64.027344 189.34375 64.273438 189.484375 64.542969 C 189.621094 64.808594 189.734375 65.089844 189.824219 65.386719 C 189.917969 65.683594 189.984375 65.988281 190.027344 66.300781 C 190.066406 66.613281 190.085938 66.925781 190.078125 67.246094 C 190.070312 67.5625 190.035156 67.875 189.976562 68.1875 C 189.917969 68.496094 189.835938 68.796875 189.730469 69.085938 C 189.621094 69.378906 189.496094 69.652344 189.34375 69.914062 C 189.191406 70.171875 189.023438 70.414062 188.835938 70.632812 C 188.644531 70.851562 188.441406 71.046875 188.222656 71.21875 C 188.003906 71.390625 187.773438 71.53125 187.53125 71.648438 C 187.289062 71.761719 187.039062 71.847656 186.785156 71.902344 C 186.53125 71.960938 186.273438 71.984375 186.015625 71.976562 C 185.753906 71.96875 185.5 71.933594 185.25 71.863281 C 184.996094 71.796875 184.753906 71.699219 184.515625 71.570312 C 184.28125 71.441406 184.058594 71.289062 183.847656 71.105469 C 183.636719 70.925781 183.441406 70.71875 183.265625 70.488281 C 183.089844 70.261719 182.933594 70.011719 182.796875 69.746094 C 182.660156 69.476562 182.542969 69.195312 182.453125 68.898438 C 182.363281 68.601562 182.296875 68.300781 182.253906 67.988281 C 182.210938 67.675781 182.191406 67.359375 182.203125 67.042969 C 182.210938 66.722656 182.242188 66.410156 182.300781 66.101562 C 182.359375 65.789062 182.441406 65.488281 182.546875 65.199219 C 182.65625 64.910156 182.785156 64.632812 182.933594 64.375 C 183.085938 64.113281 183.253906 63.875 183.441406 63.652344 C 183.632812 63.433594 183.835938 63.238281 184.054688 63.066406 C 184.273438 62.898438 184.503906 62.753906 184.746094 62.636719 C 184.988281 62.523438 185.238281 62.4375 185.492188 62.382812 C 185.75 62.328125 186.003906 62.304688 186.265625 62.308594 Z M 186.265625 62.308594 " fill-opacity="1" fill-rule="nonzero"/><g fill="#a359a0" fill-opacity="1"><g transform="translate(205.930978, 191.627579)"><g><path d="M 0.398438 -2.960938 L 0.398438 0 L 3.871094 0 L 3.871094 -2.960938 Z M 0.398438 -2.960938 "/></g></g></g></svg>