<svg xmlns="http://www.w3.org/2000/svg" xmlns:xlink="http://www.w3.org/1999/xlink" width="500" zoomAndPan="magnify" viewBox="0 0 375 374.999991" height="500" preserveAspectRatio="xMidYMid meet" version="1.0"><defs><g/><clipPath id="7c0a1e5e19"><path d="M 78.386719 27.167969 L 296.636719 27.167969 L 296.636719 290.417969 L 78.386719 290.417969 Z M 78.386719 27.167969 " clip-rule="nonzero"/></clipPath></defs><g clip-path="url(#7c0a1e5e19)"><path fill="#a359a0" d="M 134.210938 57.546875 L 243.21875 57.546875 L 243.21875 43.15625 C 243.21875 42.808594 243.148438 42.53125 243.011719 42.253906 C 242.941406 41.90625 242.730469 41.625 242.523438 41.417969 C 242.246094 41.210938 241.96875 41 241.6875 40.863281 C 241.410156 40.722656 241.0625 40.652344 240.714844 40.652344 L 94.378906 40.652344 C 94.03125 40.652344 93.753906 40.722656 93.472656 40.863281 C 93.125 41 92.847656 41.210938 92.640625 41.417969 C 92.152344 41.835938 91.875 42.460938 91.875 43.15625 L 91.875 213.617188 C 91.875 213.964844 91.945312 214.3125 92.082031 214.589844 C 92.222656 214.867188 92.363281 215.148438 92.640625 215.425781 C 92.847656 215.632812 93.125 215.84375 93.472656 215.910156 C 93.753906 216.050781 94.03125 216.121094 94.378906 216.121094 L 104.667969 216.121094 L 104.667969 229.605469 L 94.378906 229.605469 C 92.222656 229.605469 90.136719 229.191406 88.261719 228.425781 C 86.3125 227.589844 84.574219 226.410156 83.117188 224.949219 C 81.585938 223.488281 80.40625 221.679688 79.640625 219.734375 C 78.804688 217.859375 78.386719 215.773438 78.386719 213.617188 L 78.386719 43.15625 C 78.386719 41 78.804688 38.984375 79.640625 37.039062 C 80.40625 35.09375 81.585938 33.355469 83.117188 31.894531 C 84.574219 30.363281 86.3125 29.183594 88.261719 28.417969 C 90.136719 27.582031 92.222656 27.167969 94.378906 27.167969 L 240.714844 27.167969 C 242.871094 27.167969 244.957031 27.582031 246.832031 28.417969 C 248.78125 29.183594 250.585938 30.363281 252.046875 31.894531 C 253.507812 33.355469 254.6875 35.09375 255.523438 37.039062 C 256.289062 38.984375 256.707031 41 256.707031 43.15625 L 256.707031 61.648438 L 294.59375 99.535156 C 295.21875 100.160156 295.707031 100.925781 296.054688 101.691406 C 296.402344 102.527344 296.539062 103.429688 296.539062 104.261719 L 296.539062 110.730469 L 296.609375 110.867188 L 296.539062 110.867188 L 296.539062 168.707031 C 293.34375 161.0625 288.824219 153.96875 283.054688 147.78125 L 283.054688 110.867188 L 256.984375 110.867188 C 253.160156 110.867188 249.753906 109.269531 247.25 106.835938 C 243.984375 103.5 243.21875 101.136719 243.21875 97.101562 L 243.21875 71.035156 L 134.210938 71.035156 C 133.863281 71.035156 133.515625 71.101562 133.238281 71.242188 C 132.960938 71.3125 132.683594 71.519531 132.40625 71.796875 C 131.988281 72.214844 131.710938 72.839844 131.710938 73.535156 L 131.710938 243.996094 C 131.710938 244.34375 131.777344 244.621094 131.917969 244.902344 C 131.988281 245.25 132.195312 245.527344 132.40625 245.734375 C 132.683594 246.011719 132.960938 246.152344 133.238281 246.292969 C 133.515625 246.429688 133.863281 246.5 134.210938 246.5 L 192.46875 246.5 C 189.203125 243.925781 186.210938 241.148438 183.5 238.019531 C 173.492188 226.6875 167.441406 211.742188 167.441406 195.402344 C 167.441406 177.535156 174.671875 161.410156 186.351562 149.730469 C 198.03125 138.050781 214.160156 130.820312 232.027344 130.820312 C 249.824219 130.820312 266.019531 138.050781 277.699219 149.730469 C 289.378906 161.410156 296.609375 177.535156 296.609375 195.402344 C 296.609375 204.648438 294.664062 213.476562 291.117188 221.472656 C 287.78125 229.050781 282.984375 235.863281 277.144531 241.632812 L 266.996094 290.089844 L 223.265625 259.988281 L 134.210938 259.988281 C 132.058594 259.988281 129.972656 259.570312 128.09375 258.804688 C 126.148438 257.96875 124.339844 256.789062 122.878906 255.328125 C 121.421875 253.800781 120.238281 252.0625 119.40625 250.113281 C 118.640625 248.238281 118.222656 246.152344 118.222656 243.996094 L 118.222656 73.535156 C 118.222656 71.382812 118.640625 69.296875 119.40625 67.417969 C 120.238281 65.472656 121.421875 63.664062 122.878906 62.203125 C 124.339844 60.746094 126.148438 59.5625 128.09375 58.726562 C 129.972656 57.964844 132.058594 57.546875 134.210938 57.546875 Z M 202.203125 113.300781 L 202.203125 126.789062 L 140.816406 126.789062 L 140.816406 113.300781 Z M 229.800781 86.050781 L 229.800781 99.535156 L 140.816406 99.535156 L 140.816406 86.050781 Z M 205.46875 189.773438 C 209.640625 189.773438 213.046875 193.179688 213.046875 197.351562 C 213.046875 201.589844 209.640625 204.925781 205.46875 204.925781 C 201.230469 204.925781 197.890625 201.589844 197.890625 197.351562 C 197.890625 193.179688 201.230469 189.773438 205.46875 189.773438 Z M 232.027344 189.773438 C 236.195312 189.773438 239.605469 193.179688 239.605469 197.351562 C 239.605469 201.589844 236.195312 204.925781 232.027344 204.925781 C 227.855469 204.925781 224.449219 201.589844 224.449219 197.351562 C 224.449219 193.179688 227.855469 189.773438 232.027344 189.773438 Z M 258.582031 189.773438 C 262.753906 189.773438 266.160156 193.179688 266.160156 197.351562 C 266.160156 201.589844 262.753906 204.925781 258.582031 204.925781 C 254.410156 204.925781 251.003906 201.589844 251.003906 197.351562 C 251.003906 193.179688 254.410156 189.773438 258.582031 189.773438 Z M 268.246094 159.183594 C 259 149.867188 246.136719 144.167969 232.027344 144.167969 C 217.84375 144.167969 205.050781 149.867188 195.804688 159.183594 C 186.492188 168.429688 180.789062 181.222656 180.789062 195.402344 C 180.789062 208.402344 185.585938 220.222656 193.511719 229.257812 C 201.578125 238.367188 212.839844 244.621094 225.492188 246.222656 L 228.410156 247.402344 L 258.027344 267.773438 L 264.492188 236.835938 L 266.578125 233.292969 C 271.789062 228.496094 276.03125 222.65625 278.953125 216.050781 C 281.730469 209.792969 283.261719 202.773438 283.261719 195.402344 C 283.261719 181.222656 277.492188 168.429688 268.246094 159.183594 Z M 268.246094 159.183594 " fill-opacity="1" fill-rule="evenodd"/></g><g fill="#a359a0" fill-opacity="1"><g transform="translate(22.897787, 331.233434)"><g><path d="M 2 -23.246094 C 2 -31.148438 3.984375 -37.121094 7.960938 -41.164062 C 11.933594 -45.203125 17.0625 -47.226562 23.347656 -47.226562 C 29.628906 -47.226562 34.703125 -45.238281 38.566406 -41.261719 C 42.429688 -37.289062 44.359375 -31.285156 44.359375 -23.246094 C 44.359375 -17.074219 43.160156 -12.101562 40.765625 -8.324219 C 38.367188 -4.550781 35.078125 -1.953125 30.90625 -0.53125 L 37.964844 4.328125 C 38.234375 4.507812 38.367188 4.828125 38.367188 5.296875 C 38.367188 5.761719 37.867188 6.636719 36.867188 7.925781 C 35.867188 9.214844 34.667969 10.203125 33.269531 10.890625 C 31.871094 11.578125 30.816406 11.921875 30.105469 11.921875 C 29.394531 11.921875 28.820312 11.679688 28.375 11.191406 L 18.648438 0.398438 C 13.675781 -0.53125 9.65625 -3.03125 6.59375 -7.09375 C 3.53125 -11.15625 2 -16.539062 2 -23.246094 Z M 23.179688 -34.4375 C 21.046875 -34.4375 19.261719 -33.460938 17.816406 -31.503906 C 16.375 -29.550781 15.652344 -26.808594 15.652344 -23.28125 C 15.652344 -19.75 16.339844 -17.039062 17.71875 -15.152344 C 19.09375 -13.265625 20.902344 -12.324219 23.144531 -12.324219 C 25.386719 -12.324219 27.210938 -13.277344 28.609375 -15.1875 C 30.007812 -17.097656 30.707031 -19.828125 30.707031 -23.378906 C 30.707031 -26.929688 29.984375 -29.664062 28.542969 -31.570312 C 27.097656 -33.480469 25.3125 -34.4375 23.179688 -34.4375 Z M 23.179688 -34.4375 "/></g></g></g><g fill="#a359a0" fill-opacity="1"><g transform="translate(69.915721, 331.233434)"><g><path d="M 2.664062 -32.902344 C 2.664062 -33.390625 4.574219 -33.636719 8.390625 -33.636719 C 12.210938 -33.636719 14.121094 -33.390625 14.121094 -32.902344 L 14.121094 -13.453125 C 14.121094 -11.234375 14.832031 -10.125 16.253906 -10.125 C 17.316406 -10.125 18.515625 -10.589844 19.847656 -11.523438 L 19.847656 -32.902344 C 19.847656 -33.347656 21.734375 -33.570312 25.511719 -33.570312 C 29.285156 -33.570312 31.171875 -33.347656 31.171875 -32.902344 L 31.171875 -11.058594 L 32.902344 -11.058594 C 34.414062 -11.058594 35.167969 -9.613281 35.167969 -6.726562 C 35.167969 -5.261719 34.859375 -3.773438 34.234375 -2.265625 C 33.347656 -0.3125 32.148438 0.667969 30.640625 0.667969 C 27.664062 0.667969 25.464844 -0.554688 24.046875 -2.996094 L 23.980469 -2.929688 C 21.269531 -0.53125 18.363281 0.667969 15.253906 0.667969 C 10.945312 0.667969 7.769531 -0.410156 5.726562 -2.5625 C 3.6875 -4.71875 2.664062 -8.28125 2.664062 -13.253906 Z M 2.664062 -32.902344 "/></g></g></g><g fill="#a359a0" fill-opacity="1"><g transform="translate(106.14484, 331.233434)"><g><path d="M 15.1875 -0.398438 C 15.1875 -0.0429688 13.15625 0.132812 9.09375 0.132812 C 5.027344 0.132812 2.996094 -0.0234375 2.996094 -0.332031 L 2.996094 -33.039062 C 2.996094 -33.347656 5.027344 -33.503906 9.09375 -33.503906 C 13.15625 -33.503906 15.1875 -33.371094 15.1875 -33.105469 Z M 15.1875 -37.035156 C 15.1875 -36.722656 13.15625 -36.566406 9.09375 -36.566406 C 5.027344 -36.566406 2.996094 -36.699219 2.996094 -36.96875 L 2.996094 -46.558594 C 2.996094 -47.003906 5.027344 -47.226562 9.09375 -47.226562 C 13.15625 -47.226562 15.1875 -47.089844 15.1875 -46.824219 Z M 15.1875 -37.035156 "/></g></g></g><g fill="#a359a0" fill-opacity="1"><g transform="translate(124.325999, 331.233434)"><g><path d="M 13.921875 -16.519531 C 13.921875 -12.167969 15.5625 -9.992188 18.851562 -9.992188 C 20.980469 -9.992188 22.757812 -10.414062 24.179688 -11.257812 C 24.84375 -11.257812 25.386719 -10.113281 25.808594 -7.828125 C 26.230469 -5.539062 26.441406 -3.984375 26.441406 -3.164062 C 26.441406 -2.34375 26.332031 -1.796875 26.109375 -1.53125 C 23.757812 -0.0664062 20.539062 0.667969 16.453125 0.667969 C 12.367188 0.667969 8.890625 -0.855469 6.027344 -3.898438 C 3.164062 -6.9375 1.730469 -11.089844 1.730469 -16.351562 C 1.730469 -21.613281 3.140625 -25.867188 5.960938 -29.109375 C 8.78125 -32.347656 12.535156 -33.96875 17.21875 -33.96875 C 21.902344 -33.96875 25.15625 -32.835938 26.976562 -30.574219 C 27.375 -30.085938 27.574219 -29.363281 27.574219 -28.40625 C 27.574219 -27.453125 27.398438 -26.289062 27.042969 -24.910156 C 26.242188 -22.070312 25.199219 -20.425781 23.910156 -19.980469 C 23.734375 -19.9375 23.480469 -19.914062 23.144531 -19.914062 C 22.8125 -19.914062 22.402344 -20.183594 21.914062 -20.714844 C 20.183594 -22.445312 18.792969 -23.3125 17.75 -23.3125 C 16.707031 -23.3125 15.808594 -22.78125 15.054688 -21.714844 C 14.296875 -20.648438 13.921875 -18.917969 13.921875 -16.519531 Z M 13.921875 -16.519531 "/></g></g></g><g fill="#a359a0" fill-opacity="1"><g transform="translate(152.563401, 331.233434)"><g><path d="M 2.996094 -46.09375 C 2.996094 -46.804688 5.019531 -47.15625 9.058594 -47.15625 C 12.832031 -47.023438 14.71875 -46.734375 14.71875 -46.292969 L 14.71875 -20.714844 L 21.3125 -32.902344 C 21.625 -33.570312 23.511719 -33.902344 26.976562 -33.902344 C 30.441406 -33.902344 32.660156 -33.679688 33.636719 -33.238281 L 24.976562 -19.117188 L 34.96875 -0.398438 C 35.058594 -0.222656 34.226562 -0.078125 32.472656 0.0351562 C 30.71875 0.144531 29.261719 0.199219 28.109375 0.199219 C 23.84375 0.199219 21.558594 0 21.246094 -0.398438 L 14.652344 -15.1875 L 14.652344 -0.464844 C 14.652344 0.109375 12.710938 0.398438 8.824219 0.398438 C 4.941406 0.398438 2.996094 0.132812 2.996094 -0.398438 Z M 2.996094 -46.09375 "/></g></g></g><g fill="#a359a0" fill-opacity="1"><g transform="translate(187.926741, 331.233434)"><g><path d="M 39.832031 -1.464844 C 39.832031 -0.53125 37.746094 -0.0664062 33.570312 -0.0664062 C 29.394531 -0.0664062 27.132812 -0.398438 26.777344 -1.066406 L 15.652344 -21.847656 L 15.652344 -1.132812 C 15.652344 -0.332031 13.597656 0.0664062 9.492188 0.0664062 C 5.382812 0.0664062 3.332031 -0.332031 3.332031 -1.132812 L 3.332031 -45.691406 C 3.332031 -46.359375 5.085938 -46.691406 8.59375 -46.691406 C 9.96875 -46.691406 11.578125 -46.570312 13.421875 -46.324219 C 15.265625 -46.082031 16.386719 -45.625 16.785156 -44.960938 L 27.441406 -24.445312 L 27.441406 -45.359375 C 27.441406 -46.203125 29.507812 -46.625 33.636719 -46.625 C 37.765625 -46.625 39.832031 -46.203125 39.832031 -45.359375 Z M 39.832031 -1.464844 "/></g></g></g><g fill="#a359a0" fill-opacity="1"><g transform="translate(231.082008, 331.233434)"><g><path d="M 5.894531 -3.929688 C 3.121094 -6.992188 1.730469 -11.234375 1.730469 -16.652344 C 1.730469 -22.070312 3.121094 -26.308594 5.894531 -29.375 C 8.671875 -32.4375 12.410156 -33.96875 17.117188 -33.96875 C 21.824219 -33.96875 25.554688 -32.4375 28.308594 -29.375 C 31.0625 -26.308594 32.4375 -22.070312 32.4375 -16.652344 C 32.4375 -11.234375 31.0625 -6.992188 28.308594 -3.929688 C 25.554688 -0.867188 21.824219 0.667969 17.117188 0.667969 C 12.410156 0.667969 8.671875 -0.867188 5.894531 -3.929688 Z M 17.152344 -22.847656 C 14.640625 -22.847656 13.386719 -20.804688 13.386719 -16.71875 C 13.386719 -12.632812 14.640625 -10.589844 17.152344 -10.589844 C 19.660156 -10.589844 20.914062 -12.632812 20.914062 -16.71875 C 20.914062 -20.804688 19.660156 -22.847656 17.152344 -22.847656 Z M 17.152344 -22.847656 "/></g></g></g><g fill="#a359a0" fill-opacity="1"><g transform="translate(265.246602, 331.233434)"><g><path d="M 18.316406 -0.398438 C 18.316406 0.132812 16.453125 0.398438 12.722656 0.398438 C 8.28125 0.222656 6.0625 -0.0664062 6.0625 -0.464844 L 6.0625 -24.046875 L 2.664062 -24.046875 C 1.777344 -24.046875 1.332031 -25.578125 1.332031 -28.640625 C 1.332031 -29.441406 1.410156 -30.417969 1.566406 -31.570312 C 1.71875 -32.726562 2.042969 -33.304688 2.53125 -33.304688 L 6.0625 -33.304688 L 6.0625 -39.164062 C 6.0625 -40.054688 7.9375 -40.496094 11.691406 -40.496094 C 15.441406 -40.496094 17.316406 -40.140625 17.316406 -39.429688 L 17.316406 -35.167969 L 17.382812 -33.304688 L 23.046875 -33.304688 C 23.800781 -33.304688 24.179688 -31.75 24.179688 -28.640625 C 24.179688 -25.53125 23.800781 -23.980469 23.046875 -23.980469 L 18.316406 -23.980469 Z M 18.316406 -0.398438 "/></g></g></g><g fill="#a359a0" fill-opacity="1"><g transform="translate(289.754535, 331.233434)"><g><path d="M 28.175781 -1.796875 C 25.378906 -0.15625 21.78125 0.667969 17.382812 0.667969 C 12.988281 0.667969 9.28125 -0.832031 6.261719 -3.828125 C 3.242188 -6.828125 1.730469 -10.980469 1.730469 -16.285156 C 1.730469 -21.59375 3.1875 -25.867188 6.09375 -29.109375 C 9.003906 -32.347656 12.675781 -33.96875 17.117188 -33.96875 C 21.558594 -33.96875 24.988281 -32.835938 27.410156 -30.574219 C 29.828125 -28.308594 31.039062 -25.554688 31.039062 -22.3125 C 31.039062 -15.121094 26.910156 -11.523438 18.648438 -11.523438 L 14.054688 -11.523438 C 14.054688 -10.191406 14.421875 -9.269531 15.152344 -8.757812 C 15.886719 -8.25 16.960938 -7.992188 18.382812 -7.992188 C 21.492188 -7.992188 24.445312 -8.703125 27.242188 -10.125 C 27.285156 -10.167969 27.488281 -9.859375 27.84375 -9.191406 C 28.90625 -7.28125 29.441406 -5.671875 29.441406 -4.363281 C 29.441406 -3.054688 29.019531 -2.199219 28.175781 -1.796875 Z M 19.847656 -21.046875 C 19.847656 -22.914062 18.9375 -23.84375 17.117188 -23.84375 C 16.273438 -23.84375 15.554688 -23.589844 14.953125 -23.078125 C 14.355469 -22.570312 14.054688 -21.824219 14.054688 -20.847656 L 14.054688 -18.785156 L 17.652344 -18.785156 C 19.117188 -18.785156 19.847656 -19.539062 19.847656 -21.046875 Z M 19.847656 -21.046875 "/></g></g></g><g fill="#a359a0" fill-opacity="1"><g transform="translate(322.120987, 331.233434)"><g><path d="M 4.394531 -11.988281 C 7.992188 -9.8125 10.835938 -8.726562 12.921875 -8.726562 C 14.253906 -8.726562 14.921875 -9.191406 14.921875 -10.125 C 14.921875 -10.789062 13.765625 -11.65625 11.457031 -12.722656 C 5.90625 -14.988281 3.128906 -18.695312 3.128906 -23.84375 C 3.128906 -27.132812 4.328125 -29.640625 6.726562 -31.371094 C 9.125 -33.105469 12 -33.96875 15.351562 -33.96875 C 18.707031 -33.96875 21.546875 -33.613281 23.878906 -32.902344 C 26.210938 -32.195312 27.375 -31.261719 27.375 -30.105469 C 27.375 -29.128906 26.898438 -27.84375 25.945312 -26.242188 C 24.988281 -24.644531 24.332031 -23.777344 23.980469 -23.644531 C 22.070312 -24.710938 20.003906 -25.246094 17.785156 -25.246094 C 16.585938 -25.246094 15.984375 -24.824219 15.984375 -23.980469 C 15.984375 -23.445312 16.21875 -22.992188 16.683594 -22.613281 C 17.152344 -22.234375 18.007812 -21.769531 19.25 -21.214844 C 20.492188 -20.660156 21.523438 -20.160156 22.347656 -19.714844 C 23.167969 -19.273438 24.089844 -18.648438 25.109375 -17.851562 C 27.242188 -16.164062 28.308594 -13.964844 28.308594 -11.257812 C 28.308594 -7.703125 27.132812 -4.828125 24.777344 -2.632812 C 22.425781 -0.433594 18.871094 0.667969 14.121094 0.667969 C 10.96875 0.667969 8.105469 0.132812 5.527344 -0.933594 C 2.953125 -2 1.664062 -3.464844 1.664062 -5.328125 C 1.664062 -6.570312 1.964844 -7.882812 2.5625 -9.257812 C 3.164062 -10.636719 3.773438 -11.546875 4.394531 -11.988281 Z M 4.394531 -11.988281 "/></g></g></g></svg>